HIERARCHY
ROOT hip
{
	OFFSET 0.000000 0.000000 0.000000
	CHANNELS 6 Xposition Yposition Zposition Xrotation Zrotation Yrotation 
	JOINT abdomen
	{
		OFFSET 0.000000 3.422050 0.000000
		CHANNELS 3 Xrotation Zrotation Yrotation 
		JOINT chest
		{
			OFFSET 0.000000 8.486693 -0.684411
			CHANNELS 3 Xrotation Zrotation Yrotation 
			JOINT neck
			{
				OFFSET 0.000000 10.266162 -0.273764
				CHANNELS 3 Xrotation Zrotation Yrotation 
				JOINT head
				{
					OFFSET 0.000000 3.148285 0.000000
					CHANNELS 3 Xrotation Zrotation Yrotation 
					End Site
					{
						OFFSET 0.000000 3.148289 0.000000
					}
				}
			}
			JOINT lCollar
			{
				OFFSET 3.422053 6.707223 -0.821293
				CHANNELS 3 Yrotation Zrotation Xrotation 
				JOINT lShldr
				{
					OFFSET 3.285171 0.000000 0.000000
					CHANNELS 3 Zrotation Yrotation Xrotation 
					JOINT lForeArm
					{
						OFFSET 10.129278 0.000000 0.000000
						CHANNELS 3 Yrotation Zrotation Xrotation 
						JOINT lHand
						{
							OFFSET 8.486692 0.000000 0.000000
							CHANNELS 3 Zrotation Yrotation Xrotation 
							End Site
							{
								OFFSET 4.106464 0.000000 0.000000
							}
						}
					}
				}
			}
			JOINT rCollar
			{
				OFFSET -3.558935 6.707223 -0.821293
				CHANNELS 3 Yrotation Zrotation Xrotation 
				JOINT rShldr
				{
					OFFSET -3.148289 0.000000 0.000000
					CHANNELS 3 Zrotation Yrotation Xrotation 
					JOINT rForeArm
					{
						OFFSET -10.266159 0.000000 0.000000
						CHANNELS 3 Yrotation Zrotation Xrotation 
						JOINT rHand
						{
							OFFSET -8.349810 0.000000 0.000000
							CHANNELS 3 Zrotation Yrotation Xrotation 
							End Site
							{
								OFFSET -4.106464 0.000000 0.000000
							}
						}
					}
				}
			}
		}
	}
	JOINT lThigh
	{
		OFFSET 5.338403 -1.642589 1.368821
		CHANNELS 3 Xrotation Zrotation Yrotation 
		JOINT lShin
		{
			OFFSET -2.053232 -20.121670 0.000000
			CHANNELS 3 Xrotation Zrotation Yrotation 
			JOINT lFoot
			{
				OFFSET 0.000000 -19.300380 -1.231939
				CHANNELS 3 Xrotation Yrotation Zrotation 
				End Site
				{
					OFFSET 0.000000 -2.463878 4.653993
				}
			}
		}
	}
	JOINT rThigh
	{
		OFFSET -5.338403 -1.642589 1.368821
		CHANNELS 3 Xrotation Zrotation Yrotation 
		JOINT rShin
		{
			OFFSET 2.053232 -20.121670 0.000000
			CHANNELS 3 Xrotation Zrotation Yrotation 
			JOINT rFoot
			{
				OFFSET 0.000000 -19.300380 -1.231939
				CHANNELS 3 Xrotation Yrotation Zrotation 
				End Site
				{
					OFFSET 0.000000 -2.463878 4.653993
				}
			}
		}
	}
}
MOTION
Frames: 8
Frame Time: 0.033264
-24.002867 37.998627 3.997991 -11.026763 3.435710 100.015518 0.565706 1.688549 1.951305 20.299023 6.383320 -14.469059 10.302009 -0.052836 8.167669 -31.236160 -5.585079 42.800602 10.154250 9.591097 10.326633 25.628048 -24.531506 -16.136703 -55.799221 11.806638 8.867176 -6.084743 -47.838638 -57.178791 38.658581 -30.266146 37.489418 70.597389 71.319313 8.341844 65.996193 -26.193254 26.597841 -43.658287 18.879124 1.808124 -85.186333 -33.216602 4.557727 82.512459 -29.690823 -2.063594 3.670639 6.785964 -7.103996 -65.697113 -10.648751 -12.411191 73.105850 -2.631386 9.219176 3.058047 -9.949819 -21.147070 
-24.002867 37.998627 3.997991 -11.026763 3.435710 100.015518 0.565706 1.688549 1.951305 20.299023 6.383320 -14.469059 10.302009 -0.052836 8.167669 -31.607458 -5.725334 42.792820 10.154250 9.591097 10.326633 25.628046 -24.531502 -16.136702 -55.799213 11.806638 8.867176 -6.084747 -47.838631 -57.178787 38.658581 -30.266146 37.489418 70.477097 71.484055 8.031262 66.095581 -26.398647 26.685116 -43.658287 18.879124 1.808124 -85.186333 -33.216602 4.557727 82.512459 -29.690823 -2.063594 3.670639 6.785964 -7.103996 -65.697113 -10.648751 -12.411191 73.105850 -2.631386 9.219176 3.058047 -9.949819 -21.147070 
-24.002867 37.998627 3.997991 -11.026763 3.435710 100.015518 0.565706 1.688549 1.951305 20.299023 6.383320 -14.469059 10.302009 -0.052836 8.167669 -31.978571 -5.865538 42.785957 10.154250 9.591097 10.326633 25.628046 -24.531502 -16.136702 -55.799213 11.806638 8.867176 -6.084747 -47.838631 -57.178787 38.658581 -30.266146 37.489418 70.352913 71.648491 7.716994 66.195534 -26.603945 26.772966 -43.658287 18.879124 1.808124 -85.186333 -33.216602 4.557727 82.512459 -29.690823 -2.063594 3.670638 6.785964 -7.103995 -65.697113 -10.648751 -12.411191 73.105850 -2.631386 9.219176 3.058047 -9.949819 -21.147070 
-24.002867 37.998627 3.997991 -11.026763 3.435710 100.015518 0.565706 1.688549 1.951305 20.299023 6.383320 -14.469059 10.302009 -0.052836 8.167669 -32.349476 -6.005677 42.780003 10.154250 9.591097 10.326633 25.628046 -24.531502 -16.136702 -55.799213 11.806638 8.867176 -6.084747 -47.838631 -57.178787 38.658581 -30.266146 37.489418 70.224876 71.812721 7.398960 66.296028 -26.809137 26.861393 -43.658287 18.879124 1.808124 -85.186333 -33.216602 4.557727 82.512459 -29.690823 -2.063594 3.670638 6.785964 -7.103995 -65.697113 -10.648751 -12.411191 73.105850 -2.631386 9.219176 3.058047 -9.949819 -21.147070 
-24.002867 37.998627 3.997991 -11.026763 3.435710 100.015518 0.565706 1.688549 1.951305 20.299023 6.383320 -14.469059 10.302009 -0.052836 8.167669 -32.720188 -6.145747 42.774971 10.154250 9.591097 10.326633 25.628046 -24.531502 -16.136702 -55.799213 11.806638 8.867176 -6.084747 -47.838631 -57.178787 38.658581 -30.266146 37.489418 70.092789 71.976601 7.077084 66.397079 -27.014223 26.950394 -43.658287 18.879124 1.808124 -85.186333 -33.216602 4.557727 82.512459 -29.690823 -2.063594 3.670638 6.785964 -7.103995 -65.697113 -10.648751 -12.411191 73.105850 -2.631386 9.219176 3.058047 -9.949819 -21.147070 
-24.002867 37.998627 3.997991 -11.026763 3.435710 100.015518 0.565706 1.688549 1.951305 20.299023 6.383320 -14.469059 10.302009 -0.052836 8.167669 -33.090698 -6.285737 42.770855 10.154250 9.591097 10.326633 25.628046 -24.531502 -16.136702 -55.799213 11.806638 8.867176 -6.084747 -47.838631 -57.178787 38.658581 -30.266146 37.489418 69.956596 72.140236 6.751230 66.498665 -27.219196 27.039976 -43.658287 18.879124 1.808124 -85.186333 -33.216602 4.557727 82.512459 -29.690823 -2.063594 3.670638 6.785964 -7.103995 -65.697113 -10.648751 -12.411191 73.105850 -2.631386 9.219176 3.058047 -9.949819 -21.147070 
-24.002867 37.998627 3.997991 -11.026763 3.435710 100.015518 0.565706 1.688549 1.951305 20.299023 6.383320 -14.469059 10.302009 -0.052836 8.167669 -33.460983 -6.425631 42.767639 10.154250 9.591097 10.326633 25.628046 -24.531502 -16.136702 -55.799213 11.806638 8.867176 -6.084747 -47.838631 -57.178787 38.658581 -30.266146 37.489418 69.816147 72.303505 6.421314 66.600845 -27.424063 27.130154 -43.658287 18.879124 1.808124 -85.186333 -33.216602 4.557727 82.512459 -29.690823 -2.063594 3.670639 6.785964 -7.103996 -65.697113 -10.648751 -12.411191 73.105850 -2.631386 9.219176 3.058047 -9.949819 -21.147070 
-24.002867 37.998627 3.997991 -11.026763 3.435710 100.015518 0.565706 1.688549 1.951305 20.299023 6.383320 -14.469059 10.302009 -0.052836 8.167669 -33.831062 -6.565430 42.765339 10.154250 9.591097 10.326633 25.628046 -24.531502 -16.136702 -55.799213 11.806638 8.867176 -6.084747 -47.838631 -57.178787 38.658581 -30.266146 37.489418 69.671417 72.466492 6.087249 66.703583 -27.628813 27.220917 -43.658287 18.879124 1.808124 -85.186333 -33.216602 4.557727 82.512459 -29.690823 -2.063594 3.670639 6.785964 -7.103996 -65.697113 -10.648751 -12.411191 73.105850 -2.631386 9.219176 3.058047 -9.949819 -21.147070 
